<svg xmlns="http://www.w3.org/2000/svg" viewBox="0 0 24 24">
  <path fill="none" d="M0 0h24v24H0z"/>
  <path d="M12 6c3.87 0 7 3.13 7 7 0 .84-.16 1.65-.43 2.4l1.52 1.52c.55-1.2.9-2.5.9-3.92 0-4.97-4.05-9-9-9-1.4 0-2.75.33-3.94.9L9.6 6.44C10.35 6.16 11.16 6 12 6zm10-.28l-4.6-3.86-1.3 1.53 4.6 3.83 1.3-1.5zM2.92 2.3L1.65 3.56 2.98 4.9l-1.1.93 1.4 1.42L4.4 6.3l.8.8C3.83 8.7 3 10.76 3 13c0 4.97 4.02 9 9 9 2.25 0 4.3-.83 5.9-2.2l2.2 2.2 1.26-1.27L3.9 3.27l-1-.97zm13.55 16.1c-1.2 1-2.77 1.6-4.47 1.6-3.87 0-7-3.13-7-7 0-1.7.6-3.26 1.6-4.47l9.87 9.86zM8.02 3.27L6.6 1.87l-.86.7L7.16 4l.86-.72z"/>
</svg>
