<svg xmlns="http://www.w3.org/2000/svg" viewBox="0 0 24 24">
  <path d="M9 11.75c-.7 0-1.25.56-1.25 1.25S8.3 14.25 9 14.25s1.25-.56 1.25-1.25S9.7 11.75 9 11.75zm6 0c-.7 0-1.25.56-1.25 1.25s.56 1.25 1.25 1.25 1.25-.56 1.25-1.25-.56-1.25-1.25-1.25zM12 2C6.48 2 2 6.48 2 12s4.48 10 10 10 10-4.48 10-10S17.52 2 12 2zm0 18c-4.4 0-8-3.6-8-8 0-.3.02-.58.05-.86 2.36-1.05 4.23-2.98 5.2-5.37 1.82 2.56 4.8 4.23 8.17 4.23.78 0 1.53-.1 2.25-.26.2.7.33 1.47.33 2.26 0 4.4-3.6 8-8 8z"/>
  <path fill="none" d="M0 0h24v24H0z"/>
</svg>
