<svg xmlns="http://www.w3.org/2000/svg" viewBox="0 0 496.16 496.16">
  <path d="M248.08 0C111.08 0 0 111.06 0 248.1c0 137 111.07 248.06 248.08 248.06 137 0 248.08-111.08 248.08-248.08C496.16 111.06 385.1 0 248.08 0z"/>
  <path fill="#d3d3d8" d="M320.52 255.14c-3.52-8.5-8.35-15.85-14.5-22.05-6.16-6.2-13.3-11.1-21.47-14.6-8.15-3.5-16.9-5.3-26.3-5.3-11.7 0-24.5 3.7-38.37 11.12l8.35-47.47h69.58c7.3 0 12.7-1.56 16.48-4.68 3.7-3.14 5.56-7.24 5.56-12.3 0-11.64-7.6-17.45-22.85-17.45h-77.4c-8.4 0-14.47 1.9-18.18 5.7-3.7 3.8-6.25 9.9-7.6 18.3l-12.32 70.2c-1.07 6.15-1.6 9.47-1.6 9.96 0 4.4 1.85 8.33 5.56 11.8 3.7 3.46 7.96 5.2 12.74 5.2 4.4 0 10-2.57 16.77-7.7 6.8-5.1 12-8.7 15.6-10.76 3.62-2.06 9.62-3.08 18.02-3.08 6.8 0 13 1.64 18.6 4.9 5.5 3.28 10 8.24 13.3 14.87 3.3 6.65 5 14.65 5 24.03 0 8.7-1.58 16.44-4.6 23.3-3.1 6.82-7.5 12.2-13.17 16.1-5.66 3.9-12.25 5.85-19.77 5.85-8.2 0-15.6-2.4-22.26-7.24-6.63-4.82-11.9-11.6-15.8-20.28-4-9.48-10.1-14.2-18.3-14.2-4.8 0-8.8 1.7-11.96 5.1s-4.76 7.04-4.76 10.85c0 6.27 2.3 13.57 6.82 21.9s12.3 15.8 23.18 22.25c10.9 6.45 25.05 9.67 42.53 9.67 15.67 0 29.46-3.42 41.4-10.26 12-6.83 21.15-16.06 27.5-27.68 6.34-11.62 9.5-24.5 9.5-38.67 0-9.72-1.76-18.9-5.27-27.4z"/>
</svg>
