<svg xmlns="http://www.w3.org/2000/svg" viewBox="0 0 496.16 496.16">
  <path d="M248.08 0C111.08 0 0 111.06 0 248.1c0 137 111.07 248.06 248.08 248.06 137 0 248.08-111.08 248.08-248.08C496.16 111.06 385.1 0 248.08 0z"/>
  <path fill="#d3d3d8" d="M324.98 279.9c-4.54-2.06-10.57-3.08-18.1-3.08h-6.3V163.44c0-17-7.4-25.5-22.25-25.5-4.6 0-8.52 1.55-11.8 4.62-3.27 3.08-7.44 8.04-12.52 14.87L176.4 261.3c-2.14 2.82-3.95 5.2-5.42 7.17-1.46 1.95-2.88 3.98-4.24 6.07-1.36 2.1-2.4 4.1-3.07 6-.68 1.92-1.02 3.8-1.02 5.65 0 7.2 2.32 12.9 6.96 17.1 4.66 4.2 11.6 6.3 20.9 6.3H264v27.24c0 7.32 1.7 12.86 5.06 16.62s7.78 5.63 13.25 5.63c5.6 0 10-1.83 13.37-5.5 3.33-3.65 5-9.24 5-16.76V309.6h8.93c7.4 0 13-1.3 16.7-3.88 3.7-2.6 5.55-6.72 5.55-12.38 0-6.93-2.28-11.43-6.82-13.48zm-61-3.08h-63l63-85.1v85.1z"/>
</svg>
