<svg xmlns="http://www.w3.org/2000/svg" viewBox="0 0 496.16 496.16">
  <path d="M248.08 0C111.08 0 0 111.06 0 248.1c0 137 111.07 248.06 248.08 248.06 137 0 248.08-111.08 248.08-248.08C496.16 111.06 385.1 0 248.08 0z"/>
  <path fill="#d3d3d8" d="M278.77 145.42c-3.13-4-7.28-6-12.45-6-4.6 0-7.72.87-9.38 2.63-1.66 1.76-5.23 6.45-10.7 14.06-5.46 7.66-11.74 14.55-18.82 20.7s-16.53 12-28.34 17.57c-7.9 3.72-13.43 6.74-16.55 9.1-3.13 2.33-4.7 6-4.7 10.97 0 4.3 1.6 8.1 4.77 11.37 3.17 3.27 6.8 4.9 10.9 4.9 8.6 0 25.3-9.52 50.1-28.56v133.3c0 7.82 1.82 13.73 5.43 17.74 3.6 4 8.4 6 14.36 6 13.33 0 20.02-9.8 20.02-29.44V161.97c0-7.03-1.56-12.54-4.68-16.55z"/>
</svg>
