<svg xmlns="http://www.w3.org/2000/svg" viewBox="0 0 496.16 496.16">
  <path d="M248.08 0C111.08 0 0 111.06 0 248.1c0 137 111.07 248.06 248.08 248.06 137 0 248.08-111.08 248.08-248.08C496.16 111.06 385.1 0 248.08 0z"/>
  <path fill="#d3d3d8" d="M323.6 147.18c-4.2-2.93-11-4.4-20.37-4.4h-97.56c-7.7 0-13.72.98-18.02 2.93-4.3 2-6.44 6.3-6.44 13.08 0 6.35 2.06 11 6.1 14 4.07 2.97 10.2 4.46 18.4 4.46h78.37c-12.3 15.63-22.92 31.33-31.86 47.1-8.94 15.77-16.4 31.15-22.34 46.14-5.96 15-10.25 27.86-12.9 38.6-2.63 10.75-3.94 19.24-3.94 25.5 0 8.1 1.8 14.22 5.44 18.37 3.6 4.16 8.4 6.24 14.35 6.24 6.25 0 11.25-1.94 15-5.8 3.76-3.85 6.67-10.76 8.7-20.7.9-4.3 1.9-10.5 3.1-18.63 1.17-8.1 2.24-14.7 3.2-19.77 1-5.1 2.66-11.5 5-19.2 5.57-17.48 11.7-32.28 18.38-44.4 6.7-12.1 13.2-22.23 19.5-30.4 6.3-8.14 11.9-15.6 16.83-22.32 4.9-6.74 7.4-12.16 7.4-16.26 0-6.73-2.1-11.56-6.3-14.5z"/>
</svg>
