<svg xmlns="http://www.w3.org/2000/svg" viewBox="0 0 496.16 496.16">
  <path d="M248.08 0C111.08 0 0 111.06 0 248.1c0 137 111.07 248.06 248.08 248.06 137 0 248.08-111.08 248.08-248.08C496.16 111.06 385.1 0 248.08 0z"/>
  <path fill="#d3d3d8" d="M321.25 258.65c-3.23-8.7-7.8-16.23-13.7-22.63-5.9-6.4-12.8-11.33-20.65-14.8-7.86-3.46-16.43-5.2-25.7-5.2-9.68 0-18.42 1.9-26.23 5.72-7.82 3.8-15.04 9.67-21.68 17.58 1.2-26.57 5.4-45.02 12.6-55.37 3.5-5.08 7.8-9.1 12.9-12.1 5.1-2.97 10.3-4.46 15.4-4.46 6.4 0 12.1 1.7 17 5.3 4.8 3.5 8.4 8.2 10.7 14.1 1.6 4.6 4.2 8.2 7.7 10.7 3.5 2.6 7.3 3.9 11.4 3.9 4.7 0 8.5-1.7 11.53-4.9 3.05-3.3 4.56-6.9 4.56-10.9 0-6.7-2.4-13.6-7.26-20.8-4.82-7.3-12-13.3-21.52-18.2-9.5-4.9-20.5-7.3-33-7.3-13 0-24.56 2.4-34.7 7.3-10.14 4.9-18.8 12.1-25.9 21.7-7.15 9.6-12.6 21.6-16.4 36.2-3.8 14.5-5.74 31-5.74 49.5 0 22.6 3.15 41.8 9.45 57.5s15.47 27.5 27.4 35.5c11.9 8 26.07 12 42.48 12 14.3 0 27.1-3.14 38.3-9.44s20.1-15.1 26.4-26.3c6.3-11.26 9.5-23.76 9.5-37.5 0-9.5-1.6-18.58-4.83-27.28zM277.3 318.2c-6.44 8.05-14.6 12.08-24.46 12.08-10.35 0-18.95-4.4-25.78-13.18-6.84-8.8-10.26-19.78-10.26-32.96 0-8.2 1.7-15.36 5.06-21.46 3.37-6.1 7.8-10.77 13.33-14 5.5-3.2 11.3-4.82 17.3-4.82 6.3 0 12.1 1.68 17.4 5.05 5.2 3.4 9.4 8.3 12.4 14.7 3 6.4 4.5 14.1 4.5 22.9 0 13.1-3.2 23.7-9.7 31.7z"/>
</svg>
