<svg xmlns="http://www.w3.org/2000/svg" viewBox="0 0 496.16 496.16">
  <path d="M248.08 0C111.08 0 0 111.06 0 248.1c0 137 111.07 248.06 248.08 248.06 137 0 248.08-111.08 248.08-248.08C496.16 111.06 385.1 0 248.08 0z"/>
  <path fill="#d3d3d8" d="M319.64 269.7c-2.64-6.38-6.57-12.22-11.8-17.5-5.22-5.27-11.64-9.95-19.26-14.06 7.9-6.64 14-13.45 18.24-20.43 4.25-6.9 6.37-15.3 6.37-25.1 0-7.4-1.5-14.3-4.4-20.8s-7.3-12.1-13.1-17-12.6-8.6-20.4-11.2c-7.9-2.6-16.5-3.9-26-3.9-10.86 0-20.67 1.6-29.46 4.7s-16.15 7.2-22.06 12.3c-5.9 5.1-10.4 10.46-13.46 16.07-3.1 5.6-4.6 10.96-4.6 16.04 0 5.28 1.6 9.5 4.9 12.68 3.25 3.2 6.84 4.8 10.74 4.8 3.3 0 6.2-.57 8.8-1.75 2.5-1.15 4.3-2.76 5.23-4.8 1.66-3.8 3.5-7.87 5.5-12.17 2-4.27 4.1-7.8 6.36-10.53 2.25-2.77 5.3-4.96 9.16-6.6 3.84-1.7 8.75-2.5 14.7-2.5 8.8 0 15.77 2.7 20.95 8.1 5.16 5.42 7.75 11.9 7.75 19.4 0 9.86-3.27 17.4-9.76 22.7-6.5 5.27-14.27 7.9-23.25 7.9h-6c-6.92 0-12.14 1.45-15.66 4.33-3.55 2.88-5.3 6.66-5.3 11.35 0 4.8 1.46 8.54 4.4 11.2 2.92 2.7 7.07 4 12.44 4 1.2 0 3.8-.2 7.9-.55 4.1-.4 7.12-.6 9.1-.6 11.1 0 19.8 3.24 26.05 9.73 6.23 6.5 9.35 15.46 9.35 26.9 0 7.7-1.85 14.5-5.5 20.34s-8.3 10.28-13.9 13.26c-5.6 3-11.48 4.47-17.5 4.47-10.58 0-18.76-3.3-24.57-9.9-5.8-6.57-11.24-16.65-16.32-30.23-.77-2.27-2.43-4.2-4.97-5.8-2.55-1.6-5.2-2.4-7.92-2.4-5.44 0-10 1.7-13.7 5.2-3.63 3.44-5.5 8-5.5 13.7 0 4.4 1.58 9.93 4.66 16.7s7.6 13.22 13.64 19.52 13.63 11.55 22.9 15.75c9.3 4.2 19.8 6.3 31.5 6.3 11.53 0 22.05-1.8 31.6-5.5s17.72-8.73 24.7-15.2c6.9-6.5 12.14-13.9 15.7-22.2 3.57-8.3 5.35-16.9 5.35-25.8 0-7.44-1.36-14.35-4-20.75z"/>
</svg>
