<svg xmlns="http://www.w3.org/2000/svg" viewBox="0 0 496.16 496.16">
  <path d="M248.08 0C111.08 0 0 111.06 0 248.1c0 137 111.07 248.06 248.08 248.06 137 0 248.08-111.08 248.08-248.08C496.16 111.06 385.1 0 248.08 0z"/>
  <path fill="#d3d3d8" d="M319.78 325.6c-4-3.13-9.8-4.7-17.43-4.7H225.9c2.43-3.7 4.82-6.88 7.16-9.5 5.47-6.65 15.55-15.98 30.25-28 14.7-12 25.2-20.82 31.5-26.43 6.25-5.62 12.38-13.38 18.4-23.3 6-9.9 9-20.92 9-33.03 0-7.7-1.44-15.16-4.32-22.33-2.88-7.1-6.9-13.5-12.08-18.9-5.2-5.46-11.2-9.76-18.03-12.9-10.54-4.7-23.3-7.02-38.23-7.02-12.4 0-23.22 1.84-32.45 5.5s-16.86 8.48-22.87 14.44c-6 5.95-10.54 12.6-13.57 19.9-3.03 7.3-4.54 14.36-4.54 21.1 0 5.57 1.6 9.96 4.83 13.2s7.27 4.82 12.15 4.82c5.57 0 9.8-1.75 12.67-5.26 2.88-3.52 5.47-8.55 7.77-15.1 2.3-6.53 3.96-10.54 4.94-12 7.32-11.23 17.38-16.85 30.17-16.85 6.06 0 11.65 1.37 16.77 4.1 5.14 2.74 9.2 6.57 12.17 11.5 2.96 4.93 4.45 10.53 4.45 16.77 0 5.77-1.4 11.65-4.2 17.65s-6.83 11.85-12.15 17.56c-5.33 5.73-12 11.4-20 17.08-4.5 3.03-11.96 9.35-22.4 18.97-10.46 9.6-22.2 21.14-35.17 34.62-3.14 3.32-6 7.9-8.66 13.7-2.64 5.8-3.95 10.47-3.95 14 0 5.46 2.05 10.22 6.15 14.27 4.1 4.06 9.8 6.1 17.16 6.1h107.8c6.45 0 11.25-1.67 14.43-5 3.17-3.3 4.76-7.36 4.76-12.15 0-5.38-2-9.63-6.03-12.75z"/>
</svg>
