<svg xmlns="http://www.w3.org/2000/svg" viewBox="0 0 304.36 304.36">
  <path fill-rule="evenodd" d="M261.94 175.58c10.1 9.85 20.76 19.13 29.8 29.98 4 4.82 7.8 9.8 10.7 15.4 4.1 7.95.38 16.7-6.75 17.18l-44.4-.02c-11.5.94-20.6-3.66-28.3-11.48-6.2-6.25-11.8-12.9-17.8-19.37-2.5-2.64-5-5.13-8-7.1-6.1-3.92-11.3-2.72-14.8 3.6-3.58 6.4-4.38 13.52-4.7 20.68-.5 10.44-3.68 13.2-14.17 13.67-22.4 1.05-43.67-2.34-63.44-13.65-17.3-9.97-30.8-24.04-42.6-39.97-22.9-31.02-40.4-65.1-56.2-100.15-3.5-7.9-.9-12.13 7.8-12.28 14.46-.28 28.92-.26 43.4-.02 5.9.1 9.8 3.46 12.05 9C72.4 100.3 82 118.6 94 135.58c3.2 4.52 6.48 9.04 11.1 12.22 5.17 3.52 9.1 2.35 11.5-3.38 1.54-3.63 2.2-7.54 2.56-11.43 1.2-13.4 1.3-26.8-.7-40.1-1.2-8.3-5.9-13.7-14.2-15.3-4.2-.8-3.6-2.4-1.5-4.8 3.55-4.2 6.9-6.8 13.6-6.8h50.1c7.9 1.5 9.6 5.1 10.7 13l.04 55.6c-.1 3 1.56 12.2 7.1 14.2 4.45 1.4 7.37-2.1 10-4.9 12-12.8 20.6-27.8 28.2-43.4 3.4-6.9 6.3-14 9.17-21.1 2.1-5.3 5.4-7.9 11.32-7.8h48.2c1.4 0 2.83 0 4.22.24 8.13 1.4 10.35 4.9 7.84 12.8-3.98 12.44-11.68 22.8-19.2 33.24-8.03 11.15-16.64 21.9-24.6 33.1-7.34 10.22-6.76 15.4 2.34 24.26zm0 0" clip-rule="evenodd"/>
</svg>
