<svg xmlns="http://www.w3.org/2000/svg" width="0" height="0" style="position:absolute"><symbol id="account" viewBox="0 0 24 24"><path fill="none" d="M0 0h24v24H0z"/><path d="M16.5 12c1.38 0 2.5-1.12 2.5-2.5S17.87 7 16.5 7 14 8.12 14 9.5s1.12 2.5 2.5 2.5zM9 11c1.66 0 3-1.34 3-3s-1.34-3-3-3-3 1.34-3 3 1.34 3 3 3zm7.5 3c-1.83 0-5.5.92-5.5 2.75V19h11v-2.25c0-1.83-3.67-2.75-5.5-2.75zM9 13c-2.33 0-7 1.17-7 3.5V19h7v-2.25c0-.85.33-2.34 2.37-3.47C10.5 13.1 9.67 13 9 13z"/></symbol><symbol id="alarm_off" viewBox="0 0 24 24"><path fill="none" d="M0 0h24v24H0z"/><path d="M12 6c3.87 0 7 3.13 7 7 0 .84-.16 1.65-.43 2.4l1.52 1.52c.55-1.2.9-2.5.9-3.92 0-4.97-4.05-9-9-9-1.4 0-2.75.33-3.94.9L9.6 6.44C10.35 6.16 11.16 6 12 6zm10-.28l-4.6-3.86-1.3 1.53 4.6 3.83 1.3-1.5zM2.92 2.3L1.65 3.56 2.98 4.9l-1.1.93 1.4 1.42L4.4 6.3l.8.8A9.05 9.05 0 0 0 3 13c0 4.97 4.02 9 9 9 2.25 0 4.3-.83 5.9-2.2l2.2 2.2 1.26-1.27L3.9 3.27l-1-.97zm13.55 16.1c-1.2 1-2.77 1.6-4.47 1.6-3.87 0-7-3.13-7-7 0-1.7.6-3.26 1.6-4.47l9.87 9.86zM8.02 3.27L6.6 1.87l-.86.7L7.16 4l.86-.72z"/></symbol><symbol id="alarm_on" viewBox="0 0 24 24"><path fill="none" d="M0 0h24v24H0z"/><path d="M22 5.72l-4.6-3.86-1.3 1.53 4.6 3.84L22 5.72zM7.88 3.4L6.6 1.85 2 5.7l1.3 1.54L7.87 3.4zM12 4c-4.97 0-9 4.03-9 9s4.02 9 9 9a9 9 0 0 0 0-18zm0 16c-3.87 0-7-3.13-7-7s3.13-7 7-7 7 3.13 7 7-3.13 7-7 7zm-1.46-5.47L8.4 12.4l-1.05 1.06 3.18 3.18 6-6-1.06-1.06-4.93 4.95z"/></symbol><symbol id="bad" viewBox="0 0 24 24"><path fill="none" d="M0 0h24v24H0V0z"/><path d="M12 2C6.46 2 2 6.48 2 12s4.47 10 10 10c5.52 0 10-4.48 10-10S17.52 2 12 2zm0 18c-4.42 0-8-3.58-8-8s3.58-8 8-8 8 3.58 8 8-3.58 8-8 8zm3.5-9c.83 0 1.5-.67 1.5-1.5S16.33 8 15.5 8 14 8.67 14 9.5s.67 1.5 1.5 1.5zm-7 0c.83 0 1.5-.67 1.5-1.5S9.33 8 8.5 8 7 8.67 7 9.5 7.67 11 8.5 11zm3.5 3c-2.33 0-4.3 1.46-5.1 3.5h10.2c-.8-2.04-2.77-3.5-5.1-3.5z"/></symbol><symbol id="calendar" viewBox="0 0 24 24"><path d="M19 3h-1V1h-2v2H8V1H6v2H5c-1.1 0-2 .9-2 2v14c0 1.1.9 2 2 2h14c1.1 0 2-.9 2-2V5c0-1.1-.9-2-2-2zm-7 3c1.66 0 3 1.34 3 3s-1.34 3-3 3-3-1.34-3-3 1.34-3 3-3zm6 12H6v-1c0-2 4-3.1 6-3.1s6 1.1 6 3.1v1z"/><path fill="none" d="M0 0h24v24H0z"/></symbol><symbol id="check" viewBox="0 0 24 24"><path fill="none" d="M0 0h24v24H0z"/><path d="M12 2C6.48 2 2 6.48 2 12s4.48 10 10 10 10-4.48 10-10S17.52 2 12 2zm-2 15l-5-5 1.4-1.4 3.6 3.57 7.6-7.6L19 8l-9 9z"/></symbol><symbol id="devices" viewBox="0 0 24 24"><path fill="none" d="M0 0h24v24H0z"/><path d="M3 6h18V4H3c-1.1 0-2 .9-2 2v12c0 1.1.9 2 2 2h4v-2H3V6zm10 6H9v1.78c-.6.55-1 1.33-1 2.22s.4 1.67 1 2.22V20h4v-1.78c.6-.55 1-1.34 1-2.22s-.4-1.67-1-2.22V12zm-2 5.5c-.83 0-1.5-.67-1.5-1.5s.67-1.5 1.5-1.5 1.5.67 1.5 1.5-.67 1.5-1.5 1.5zM22 8h-6c-.5 0-1 .5-1 1v10c0 .5.5 1 1 1h6c.5 0 1-.5 1-1V9c0-.5-.5-1-1-1zm-1 10h-4v-8h4v8z"/></symbol><symbol id="face" viewBox="0 0 24 24"><path d="M9 11.75c-.7 0-1.25.56-1.25 1.25S8.3 14.25 9 14.25s1.25-.56 1.25-1.25S9.7 11.75 9 11.75zm6 0a1.25 1.25 0 1 0 0 2.5 1.25 1.25 0 0 0 0-2.5zM12 2C6.48 2 2 6.48 2 12s4.48 10 10 10 10-4.48 10-10S17.52 2 12 2zm0 18c-4.4 0-8-3.6-8-8 0-.3.02-.58.05-.86 2.36-1.05 4.23-2.98 5.2-5.37 1.82 2.56 4.8 4.23 8.17 4.23.78 0 1.53-.1 2.25-.26.2.7.33 1.47.33 2.26 0 4.4-3.6 8-8 8z"/><path fill="none" d="M0 0h24v24H0z"/></symbol><symbol id="five" viewBox="0 0 496.16 496.16"><path d="M248.08 0C111.08 0 0 111.06 0 248.1c0 137 111.07 248.06 248.08 248.06 137 0 248.08-111.08 248.08-248.08C496.16 111.06 385.1 0 248.08 0z"/><path fill="#d3d3d8" d="M320.52 255.14c-3.52-8.5-8.35-15.85-14.5-22.05-6.16-6.2-13.3-11.1-21.47-14.6-8.15-3.5-16.9-5.3-26.3-5.3-11.7 0-24.5 3.7-38.37 11.12l8.35-47.47h69.58c7.3 0 12.7-1.56 16.48-4.68 3.7-3.14 5.56-7.24 5.56-12.3 0-11.64-7.6-17.45-22.85-17.45h-77.4c-8.4 0-14.47 1.9-18.18 5.7-3.7 3.8-6.25 9.9-7.6 18.3l-12.32 70.2c-1.07 6.15-1.6 9.47-1.6 9.96 0 4.4 1.85 8.33 5.56 11.8 3.7 3.46 7.96 5.2 12.74 5.2 4.4 0 10-2.57 16.77-7.7 6.8-5.1 12-8.7 15.6-10.76 3.62-2.06 9.62-3.08 18.02-3.08 6.8 0 13 1.64 18.6 4.9 5.5 3.28 10 8.24 13.3 14.87 3.3 6.65 5 14.65 5 24.03 0 8.7-1.58 16.44-4.6 23.3-3.1 6.82-7.5 12.2-13.17 16.1-5.66 3.9-12.25 5.85-19.77 5.85-8.2 0-15.6-2.4-22.26-7.24-6.63-4.82-11.9-11.6-15.8-20.28-4-9.48-10.1-14.2-18.3-14.2-4.8 0-8.8 1.7-11.96 5.1s-4.76 7.04-4.76 10.85c0 6.27 2.3 13.57 6.82 21.9s12.3 15.8 23.18 22.25c10.9 6.45 25.05 9.67 42.53 9.67 15.67 0 29.46-3.42 41.4-10.26 12-6.83 21.15-16.06 27.5-27.68 6.34-11.62 9.5-24.5 9.5-38.67 0-9.72-1.76-18.9-5.27-27.4z"/></symbol><symbol id="four" viewBox="0 0 496.16 496.16"><path d="M248.08 0C111.08 0 0 111.06 0 248.1c0 137 111.07 248.06 248.08 248.06 137 0 248.08-111.08 248.08-248.08C496.16 111.06 385.1 0 248.08 0z"/><path fill="#d3d3d8" d="M324.98 279.9c-4.54-2.06-10.57-3.08-18.1-3.08h-6.3V163.44c0-17-7.4-25.5-22.25-25.5-4.6 0-8.52 1.55-11.8 4.62-3.27 3.08-7.44 8.04-12.52 14.87L176.4 261.3c-2.14 2.82-3.95 5.2-5.42 7.17-1.46 1.95-2.88 3.98-4.24 6.07-1.36 2.1-2.4 4.1-3.07 6-.68 1.92-1.02 3.8-1.02 5.65 0 7.2 2.32 12.9 6.96 17.1 4.66 4.2 11.6 6.3 20.9 6.3H264v27.24c0 7.32 1.7 12.86 5.06 16.62s7.78 5.63 13.25 5.63c5.6 0 10-1.83 13.37-5.5 3.33-3.65 5-9.24 5-16.76V309.6h8.93c7.4 0 13-1.3 16.7-3.88 3.7-2.6 5.55-6.72 5.55-12.38 0-6.93-2.28-11.43-6.82-13.48zm-61-3.08h-63l63-85.1v85.1z"/></symbol><symbol id="information" viewBox="0 0 24 24"><path fill="none" d="M0 0h24v24H0z"/><path d="M13 7h-2v2h2V7zm0 4h-2v6h2v-6zm4-10H7c-1.1 0-2 .9-2 2v18c0 1.1.9 2 2 2h10c1.1 0 2-.9 2-2V3c0-1.1-.9-2-2-2zm0 18H7V5h10v14z"/></symbol><symbol id="instagram" viewBox="0 0 300 300"><path d="M38.52.012h222.978C282.682.012 300 17.336 300 38.52v222.978c0 21.178-17.318 38.49-38.502 38.49H38.52c-21.184 0-38.52-17.313-38.52-38.49V38.52C0 17.336 17.336.012 38.52.012zm180.026 33.317c-7.438 0-13.505 6.091-13.505 13.525v32.314c0 7.437 6.067 13.514 13.505 13.514h33.903c7.426 0 13.506-6.077 13.506-13.514V46.854c0-7.434-6.08-13.525-13.506-13.525h-33.903zm47.538 93.539h-26.396a87.715 87.715 0 0 1 3.86 25.759c0 49.882-41.766 90.34-93.266 90.34-51.487 0-93.254-40.458-93.254-90.34 0-8.963 1.37-17.584 3.861-25.759H33.35V253.6c0 6.563 5.359 11.902 11.916 11.902h208.907c6.563 0 11.911-5.339 11.911-11.902V126.868zm-115.801-35.89c-33.26 0-60.24 26.128-60.24 58.388 0 32.227 26.98 58.375 60.24 58.375 33.278 0 60.259-26.148 60.259-58.375 0-32.261-26.981-58.388-60.259-58.388z"/></symbol><symbol id="one" viewBox="0 0 496.16 496.16"><path d="M248.08 0C111.08 0 0 111.06 0 248.1c0 137 111.07 248.06 248.08 248.06 137 0 248.08-111.08 248.08-248.08C496.16 111.06 385.1 0 248.08 0z"/><path fill="#d3d3d8" d="M278.77 145.42c-3.13-4-7.28-6-12.45-6-4.6 0-7.72.87-9.38 2.63-1.66 1.76-5.23 6.45-10.7 14.06-5.46 7.66-11.74 14.55-18.82 20.7s-16.53 12-28.34 17.57c-7.9 3.72-13.43 6.74-16.55 9.1-3.13 2.33-4.7 6-4.7 10.97 0 4.3 1.6 8.1 4.77 11.37 3.17 3.27 6.8 4.9 10.9 4.9 8.6 0 25.3-9.52 50.1-28.56v133.3c0 7.82 1.82 13.73 5.43 17.74 3.6 4 8.4 6 14.36 6 13.33 0 20.02-9.8 20.02-29.44V161.97c0-7.03-1.56-12.54-4.68-16.55z"/></symbol><symbol id="people" viewBox="0 0 24 24"><path fill="none" d="M0 0h24v24H0z"/><path d="M16 11c1.66 0 3-1.34 3-3s-1.34-3-3-3-3 1.34-3 3 1.34 3 3 3zm-8 0c1.66 0 3-1.34 3-3S9.65 5 8 5 5 6.34 5 8s1.34 3 3 3zm0 2c-2.33 0-7 1.17-7 3.5V19h14v-2.5c0-2.33-4.67-3.5-7-3.5zm8 0c-.3 0-.62.02-.97.05C16.2 13.9 17 15.02 17 16.5V19h6v-2.5c0-2.33-4.67-3.5-7-3.5z"/></symbol><symbol id="seven" viewBox="0 0 496.16 496.16"><path d="M248.08 0C111.08 0 0 111.06 0 248.1c0 137 111.07 248.06 248.08 248.06 137 0 248.08-111.08 248.08-248.08C496.16 111.06 385.1 0 248.08 0z"/><path fill="#d3d3d8" d="M323.6 147.18c-4.2-2.93-11-4.4-20.37-4.4h-97.56c-7.7 0-13.72.98-18.02 2.93-4.3 2-6.44 6.3-6.44 13.08 0 6.35 2.06 11 6.1 14 4.07 2.97 10.2 4.46 18.4 4.46h78.37c-12.3 15.63-22.92 31.33-31.86 47.1-8.94 15.77-16.4 31.15-22.34 46.14-5.96 15-10.25 27.86-12.9 38.6-2.63 10.75-3.94 19.24-3.94 25.5 0 8.1 1.8 14.22 5.44 18.37 3.6 4.16 8.4 6.24 14.35 6.24 6.25 0 11.25-1.94 15-5.8 3.76-3.85 6.67-10.76 8.7-20.7.9-4.3 1.9-10.5 3.1-18.63 1.17-8.1 2.24-14.7 3.2-19.77 1-5.1 2.66-11.5 5-19.2 5.57-17.48 11.7-32.28 18.38-44.4 6.7-12.1 13.2-22.23 19.5-30.4 6.3-8.14 11.9-15.6 16.83-22.32 4.9-6.74 7.4-12.16 7.4-16.26 0-6.73-2.1-11.56-6.3-14.5z"/></symbol><symbol id="six" viewBox="0 0 496.16 496.16"><path d="M248.08 0C111.08 0 0 111.06 0 248.1c0 137 111.07 248.06 248.08 248.06 137 0 248.08-111.08 248.08-248.08C496.16 111.06 385.1 0 248.08 0z"/><path fill="#d3d3d8" d="M321.25 258.65c-3.23-8.7-7.8-16.23-13.7-22.63-5.9-6.4-12.8-11.33-20.65-14.8-7.86-3.46-16.43-5.2-25.7-5.2-9.68 0-18.42 1.9-26.23 5.72-7.82 3.8-15.04 9.67-21.68 17.58 1.2-26.57 5.4-45.02 12.6-55.37 3.5-5.08 7.8-9.1 12.9-12.1 5.1-2.97 10.3-4.46 15.4-4.46 6.4 0 12.1 1.7 17 5.3 4.8 3.5 8.4 8.2 10.7 14.1 1.6 4.6 4.2 8.2 7.7 10.7 3.5 2.6 7.3 3.9 11.4 3.9 4.7 0 8.5-1.7 11.53-4.9 3.05-3.3 4.56-6.9 4.56-10.9 0-6.7-2.4-13.6-7.26-20.8-4.82-7.3-12-13.3-21.52-18.2-9.5-4.9-20.5-7.3-33-7.3-13 0-24.56 2.4-34.7 7.3-10.14 4.9-18.8 12.1-25.9 21.7-7.15 9.6-12.6 21.6-16.4 36.2-3.8 14.5-5.74 31-5.74 49.5 0 22.6 3.15 41.8 9.45 57.5s15.47 27.5 27.4 35.5c11.9 8 26.07 12 42.48 12 14.3 0 27.1-3.14 38.3-9.44s20.1-15.1 26.4-26.3c6.3-11.26 9.5-23.76 9.5-37.5 0-9.5-1.6-18.58-4.83-27.28zM277.3 318.2c-6.44 8.05-14.6 12.08-24.46 12.08-10.35 0-18.95-4.4-25.78-13.18-6.84-8.8-10.26-19.78-10.26-32.96 0-8.2 1.7-15.36 5.06-21.46 3.37-6.1 7.8-10.77 13.33-14 5.5-3.2 11.3-4.82 17.3-4.82 6.3 0 12.1 1.68 17.4 5.05 5.2 3.4 9.4 8.3 12.4 14.7 3 6.4 4.5 14.1 4.5 22.9 0 13.1-3.2 23.7-9.7 31.7z"/></symbol><symbol id="spellcheck" viewBox="0 0 24 24"><path fill="none" d="M0 0h24v24H0z"/><path d="M12.45 16h2.1L9.42 3H7.57l-5.1 13h2.08l1.12-3h5.64l1.16 3zm-6.02-5L8.5 5.48 10.57 11H6.43zm15.16.6l-8.1 8.08L9.82 16l-1.4 1.4 5.08 5.1L23 13l-1.4-1.4z"/></symbol><symbol id="three" viewBox="0 0 496.16 496.16"><path d="M248.08 0C111.08 0 0 111.06 0 248.1c0 137 111.07 248.06 248.08 248.06 137 0 248.08-111.08 248.08-248.08C496.16 111.06 385.1 0 248.08 0z"/><path fill="#d3d3d8" d="M319.64 269.7c-2.64-6.38-6.57-12.22-11.8-17.5-5.22-5.27-11.64-9.95-19.26-14.06 7.9-6.64 14-13.45 18.24-20.43 4.25-6.9 6.37-15.3 6.37-25.1 0-7.4-1.5-14.3-4.4-20.8s-7.3-12.1-13.1-17-12.6-8.6-20.4-11.2c-7.9-2.6-16.5-3.9-26-3.9-10.86 0-20.67 1.6-29.46 4.7s-16.15 7.2-22.06 12.3c-5.9 5.1-10.4 10.46-13.46 16.07-3.1 5.6-4.6 10.96-4.6 16.04 0 5.28 1.6 9.5 4.9 12.68 3.25 3.2 6.84 4.8 10.74 4.8 3.3 0 6.2-.57 8.8-1.75 2.5-1.15 4.3-2.76 5.23-4.8 1.66-3.8 3.5-7.87 5.5-12.17 2-4.27 4.1-7.8 6.36-10.53 2.25-2.77 5.3-4.96 9.16-6.6 3.84-1.7 8.75-2.5 14.7-2.5 8.8 0 15.77 2.7 20.95 8.1 5.16 5.42 7.75 11.9 7.75 19.4 0 9.86-3.27 17.4-9.76 22.7-6.5 5.27-14.27 7.9-23.25 7.9h-6c-6.92 0-12.14 1.45-15.66 4.33-3.55 2.88-5.3 6.66-5.3 11.35 0 4.8 1.46 8.54 4.4 11.2 2.92 2.7 7.07 4 12.44 4 1.2 0 3.8-.2 7.9-.55 4.1-.4 7.12-.6 9.1-.6 11.1 0 19.8 3.24 26.05 9.73 6.23 6.5 9.35 15.46 9.35 26.9 0 7.7-1.85 14.5-5.5 20.34s-8.3 10.28-13.9 13.26c-5.6 3-11.48 4.47-17.5 4.47-10.58 0-18.76-3.3-24.57-9.9-5.8-6.57-11.24-16.65-16.32-30.23-.77-2.27-2.43-4.2-4.97-5.8-2.55-1.6-5.2-2.4-7.92-2.4-5.44 0-10 1.7-13.7 5.2-3.63 3.44-5.5 8-5.5 13.7 0 4.4 1.58 9.93 4.66 16.7s7.6 13.22 13.64 19.52 13.63 11.55 22.9 15.75c9.3 4.2 19.8 6.3 31.5 6.3 11.53 0 22.05-1.8 31.6-5.5s17.72-8.73 24.7-15.2c6.9-6.5 12.14-13.9 15.7-22.2 3.57-8.3 5.35-16.9 5.35-25.8 0-7.44-1.36-14.35-4-20.75z"/></symbol><symbol id="tv" viewBox="0 0 24 24"><path fill="none" d="M0 0h24v24H0V0z"/><path d="M21 6h-7.6l3.3-3.3L16 2l-4 4-4-4-.7.7L10.6 6H3c-1.1 0-2 .9-2 2v12c0 1.1.9 2 2 2h18c1.1 0 2-.9 2-2V8c0-1.1-.9-2-2-2zm0 14H3V8h18v12zM9 10v8l7-4z"/></symbol><symbol id="two" viewBox="0 0 496.16 496.16"><path d="M248.08 0C111.08 0 0 111.06 0 248.1c0 137 111.07 248.06 248.08 248.06 137 0 248.08-111.08 248.08-248.08C496.16 111.06 385.1 0 248.08 0z"/><path fill="#d3d3d8" d="M319.78 325.6c-4-3.13-9.8-4.7-17.43-4.7H225.9c2.43-3.7 4.82-6.88 7.16-9.5 5.47-6.65 15.55-15.98 30.25-28 14.7-12 25.2-20.82 31.5-26.43 6.25-5.62 12.38-13.38 18.4-23.3 6-9.9 9-20.92 9-33.03 0-7.7-1.44-15.16-4.32-22.33-2.88-7.1-6.9-13.5-12.08-18.9-5.2-5.46-11.2-9.76-18.03-12.9-10.54-4.7-23.3-7.02-38.23-7.02-12.4 0-23.22 1.84-32.45 5.5s-16.86 8.48-22.87 14.44c-6 5.95-10.54 12.6-13.57 19.9-3.03 7.3-4.54 14.36-4.54 21.1 0 5.57 1.6 9.96 4.83 13.2s7.27 4.82 12.15 4.82c5.57 0 9.8-1.75 12.67-5.26 2.88-3.52 5.47-8.55 7.77-15.1 2.3-6.53 3.96-10.54 4.94-12 7.32-11.23 17.38-16.85 30.17-16.85 6.06 0 11.65 1.37 16.77 4.1 5.14 2.74 9.2 6.57 12.17 11.5 2.96 4.93 4.45 10.53 4.45 16.77 0 5.77-1.4 11.65-4.2 17.65s-6.83 11.85-12.15 17.56c-5.33 5.73-12 11.4-20 17.08-4.5 3.03-11.96 9.35-22.4 18.97-10.46 9.6-22.2 21.14-35.17 34.62-3.14 3.32-6 7.9-8.66 13.7-2.64 5.8-3.95 10.47-3.95 14 0 5.46 2.05 10.22 6.15 14.27 4.1 4.06 9.8 6.1 17.16 6.1h107.8c6.45 0 11.25-1.67 14.43-5 3.17-3.3 4.76-7.36 4.76-12.15 0-5.38-2-9.63-6.03-12.75z"/></symbol><symbol id="up" viewBox="0 0 24 24"><path fill="none" d="M0 0h24v24H0z"/><path d="M1 21h4V9H1v12zm22-11c0-1.1-.9-2-2-2h-6.3l.94-4.57.03-.32c0-.4-.17-.77-.44-1.04L14.17 1 7.6 7.6c-.4.34-.6.84-.6 1.4v10c0 1.1.9 2 2 2h9c.83 0 1.54-.5 1.84-1.22l3.02-7.05c.1-.23.14-.47.14-.73v-2z"/></symbol><symbol id="video" viewBox="0 0 24 24"><path fill="none" d="M0 0h24v24H0z"/><path d="M4 6H2v14c0 1.1.9 2 2 2h14v-2H4V6zm16-4H8c-1.1 0-2 .9-2 2v12c0 1.1.9 2 2 2h12c1.1 0 2-.9 2-2V4c0-1.1-.9-2-2-2zm-8 12.5v-9l6 4.5-6 4.5z"/></symbol><symbol id="vk" viewBox="0 0 304.36 304.36"><path fill-rule="evenodd" d="M261.94 175.58c10.1 9.85 20.76 19.13 29.8 29.98 4 4.82 7.8 9.8 10.7 15.4 4.1 7.95.38 16.7-6.75 17.18l-44.4-.02c-11.5.94-20.6-3.66-28.3-11.48-6.2-6.25-11.8-12.9-17.8-19.37-2.5-2.64-5-5.13-8-7.1-6.1-3.92-11.3-2.72-14.8 3.6-3.58 6.4-4.38 13.52-4.7 20.68-.5 10.44-3.68 13.2-14.17 13.67-22.4 1.05-43.67-2.34-63.44-13.65-17.3-9.97-30.8-24.04-42.6-39.97-22.9-31.02-40.4-65.1-56.2-100.15-3.5-7.9-.9-12.13 7.8-12.28 14.46-.28 28.92-.26 43.4-.02 5.9.1 9.8 3.46 12.05 9C72.4 100.3 82 118.6 94 135.58c3.2 4.52 6.48 9.04 11.1 12.22 5.17 3.52 9.1 2.35 11.5-3.38 1.54-3.63 2.2-7.54 2.56-11.43 1.2-13.4 1.3-26.8-.7-40.1-1.2-8.3-5.9-13.7-14.2-15.3-4.2-.8-3.6-2.4-1.5-4.8 3.55-4.2 6.9-6.8 13.6-6.8h50.1c7.9 1.5 9.6 5.1 10.7 13l.04 55.6c-.1 3 1.56 12.2 7.1 14.2 4.45 1.4 7.37-2.1 10-4.9 12-12.8 20.6-27.8 28.2-43.4 3.4-6.9 6.3-14 9.17-21.1 2.1-5.3 5.4-7.9 11.32-7.8h48.2c1.4 0 2.83 0 4.22.24 8.13 1.4 10.35 4.9 7.84 12.8-3.98 12.44-11.68 22.8-19.2 33.24-8.03 11.15-16.64 21.9-24.6 33.1-7.34 10.22-6.76 15.4 2.34 24.26zm0 0" clip-rule="evenodd"/></symbol><symbol id="youtube" viewBox="0 0 90 90"><path d="M70.939 65.832H66l.023-2.869a2.329 2.329 0 0 1 2.326-2.318h.315a2.332 2.332 0 0 1 2.332 2.318l-.057 2.869zm-18.526-6.148c-1.253 0-2.278.842-2.278 1.873V75.51c0 1.029 1.025 1.869 2.278 1.869 1.258 0 2.284-.84 2.284-1.869V61.557c0-1.032-1.026-1.873-2.284-1.873zM82.5 51.879v26.544C82.5 84.79 76.979 90 70.23 90H19.771C13.02 90 7.5 84.79 7.5 78.423V51.879c0-6.367 5.52-11.578 12.271-11.578H70.23c6.749 0 12.27 5.211 12.27 11.578zM23.137 81.305l-.004-27.961 6.255.002v-4.143l-16.674-.025v4.073l5.205.015v28.039h5.218zm18.75-23.796h-5.215V72.44c0 2.16.131 3.24-.008 3.621-.424 1.158-2.33 2.388-3.073.125-.126-.396-.015-1.591-.017-3.643l-.021-15.034h-5.186l.016 14.798c.004 2.268-.051 3.959.018 4.729.127 1.357.082 2.939 1.341 3.843 2.346 1.69 6.843-.252 7.968-2.668l-.01 3.083 4.188.005-.001-23.79zM58.57 74.607l-.011-12.427c-.004-4.736-3.547-7.572-8.356-3.74l.021-9.239-5.209.008-.025 31.89 4.284-.062.39-1.986c5.473 5.021 8.914 1.58 8.906-4.444zm16.321-1.647l-3.91.021c-.002.155-.008.334-.01.529v2.182c0 1.168-.965 2.119-2.137 2.119h-.766c-1.174 0-2.139-.951-2.139-2.119v-5.739h8.954v-3.37c0-2.463-.063-4.925-.267-6.333-.641-4.454-6.893-5.161-10.051-2.881a5.887 5.887 0 0 0-2.188 2.945c-.444 1.281-.665 3.031-.665 5.254v7.41c.002 12.318 14.964 10.577 13.179-.018zM54.833 32.732a3.55 3.55 0 0 0 1.254 1.584c.56.394 1.276.592 2.134.592.752 0 1.418-.203 1.998-.622.578-.417 1.065-1.04 1.463-1.871l-.099 2.046h5.813V9.74H62.82v19.24a1.907 1.907 0 0 1-3.811 0V9.74h-4.776v16.674c0 2.124.039 3.54.102 4.258.065.713.229 1.397.498 2.06zM37.217 18.77c0-2.373.198-4.226.591-5.562.396-1.331 1.107-2.401 2.137-3.208 1.027-.811 2.342-1.217 3.941-1.217 1.345 0 2.497.264 3.459.781.967.52 1.713 1.195 2.23 2.028a8 8 0 0 1 1.076 2.574c.195.891.291 2.235.291 4.048v6.252c0 2.293-.092 3.98-.271 5.051a8.006 8.006 0 0 1-1.146 3.004c-.58.924-1.329 1.615-2.237 2.056-.918.445-1.968.663-3.154.663-1.325 0-2.441-.183-3.361-.565-.923-.38-1.636-.953-2.144-1.714-.513-.762-.874-1.69-1.092-2.772-.219-1.081-.323-2.707-.323-4.874l.003-6.545zm4.553 9.82c0 1.4 1.042 2.543 2.311 2.543 1.27 0 2.308-1.143 2.308-2.543V15.43c0-1.398-1.038-2.541-2.308-2.541-1.269 0-2.311 1.143-2.311 2.541v13.16zm-16.088 6.645h5.484l.006-18.96L37.652.033h-5.998l-3.445 12.064L24.715 0h-5.936l6.894 16.284.009 18.951z"/></symbol></svg>